<svg xmlns="http://www.w3.org/2000/svg" width="74.857" height="106.661" viewBox="0 0 74.857 106.661">
  <g id="Group_7923" data-name="Group 7923" transform="translate(-173.432 -39.536)">
    <path id="Path_8982" data-name="Path 8982" d="M-549.075,5608.935a2.258,2.258,0,0,0-.493-.559,2.3,2.3,0,0,0-.671-.374,2.31,2.31,0,0,0-.782-.135,2.576,2.576,0,0,0-1.27.292,2.378,2.378,0,0,0-.846.776,3.433,3.433,0,0,0-.473,1.111,5.54,5.54,0,0,0-.148,1.286,5.176,5.176,0,0,0,.148,1.237,3.369,3.369,0,0,0,.473,1.081,2.416,2.416,0,0,0,.846.77,2.582,2.582,0,0,0,1.27.291,2.049,2.049,0,0,0,1.585-.622,2.881,2.881,0,0,0,.7-1.642h2.143a5.125,5.125,0,0,1-.437,1.711,4.073,4.073,0,0,1-.931,1.3,3.928,3.928,0,0,1-1.353.819,4.965,4.965,0,0,1-1.706.282,5.165,5.165,0,0,1-2.081-.4,4.457,4.457,0,0,1-1.558-1.11,4.932,4.932,0,0,1-.973-1.659,6.145,6.145,0,0,1-.338-2.058,6.34,6.34,0,0,1,.338-2.1,5.089,5.089,0,0,1,.973-1.69,4.482,4.482,0,0,1,1.558-1.128,5.046,5.046,0,0,1,2.081-.412,5.038,5.038,0,0,1,1.572.241,4.275,4.275,0,0,1,1.326.7,3.767,3.767,0,0,1,.966,1.137,4.086,4.086,0,0,1,.48,1.554h-2.145a1.783,1.783,0,0,0-.253-.7" transform="translate(730.433 -5470.364)" fill="#101e8e"/>
    <path id="Path_8983" data-name="Path 8983" d="M-543.611,5614.457a1.793,1.793,0,0,0,1.3.439,1.79,1.79,0,0,0,1.043-.3,1.265,1.265,0,0,0,.536-.645h1.763a3.355,3.355,0,0,1-1.3,1.88,3.81,3.81,0,0,1-2.116.566,4.156,4.156,0,0,1-1.551-.275,3.215,3.215,0,0,1-1.171-.784,3.545,3.545,0,0,1-.74-1.216,4.462,4.462,0,0,1-.262-1.555,4.259,4.259,0,0,1,.269-1.527,3.544,3.544,0,0,1,.762-1.223A3.554,3.554,0,0,1-543.9,5609a3.777,3.777,0,0,1,1.515-.3,3.473,3.473,0,0,1,1.622.359,3.255,3.255,0,0,1,1.135.97,3.97,3.97,0,0,1,.641,1.385,5.148,5.148,0,0,1,.141,1.625h-5.26a2.033,2.033,0,0,0,.493,1.414m2.265-3.844a1.4,1.4,0,0,0-1.092-.4,1.745,1.745,0,0,0-.8.163,1.513,1.513,0,0,0-.508.4,1.429,1.429,0,0,0-.268.51,2.256,2.256,0,0,0-.092.479h3.259a2.334,2.334,0,0,0-.5-1.157" transform="translate(730.891 -5470.238)" fill="#101e8e"/>
    <path id="Path_8984" data-name="Path 8984" d="M-536.129,5608.9v1.358h.027a2.5,2.5,0,0,1,.382-.63,2.487,2.487,0,0,1,.549-.495,2.721,2.721,0,0,1,.662-.317,2.412,2.412,0,0,1,.734-.112,1.483,1.483,0,0,1,.437.07v1.865c-.094-.018-.207-.034-.339-.049a3.421,3.421,0,0,0-.38-.021,2.116,2.116,0,0,0-.931.185,1.609,1.609,0,0,0-.613.5,2.014,2.014,0,0,0-.332.741,4.061,4.061,0,0,0-.1.921v3.292h-2V5608.9Z" transform="translate(731.266 -5470.238)" fill="#101e8e"/>
    <path id="Path_8985" data-name="Path 8985" d="M-528.756,5608.99v1.344h-1.467v3.618a.994.994,0,0,0,.17.681.989.989,0,0,0,.677.168c.113,0,.221,0,.324-.014a2.525,2.525,0,0,0,.3-.043v1.555a4.7,4.7,0,0,1-.565.058c-.206.009-.408.013-.606.013a5.639,5.639,0,0,1-.881-.064,2.1,2.1,0,0,1-.734-.248,1.3,1.3,0,0,1-.5-.521,1.879,1.879,0,0,1-.183-.893v-4.31h-1.214v-1.344h1.214v-2.19h2v2.19Z" transform="translate(731.48 -5470.327)" fill="#101e8e"/>
    <path id="Path_8986" data-name="Path 8986" d="M-527.994,5606.232h2v1.653h-2Zm2,10.092h-2v-7.308h2Z" transform="translate(731.733 -5470.354)" fill="#101e8e"/>
    <path id="Path_8987" data-name="Path 8987" d="M-525.3,5610.359v-1.343h1.2v-.564a2.2,2.2,0,0,1,.607-1.6,2.458,2.458,0,0,1,1.833-.621c.178,0,.357.007.536.02s.353.028.522.036v1.5a6.471,6.471,0,0,0-.734-.042.763.763,0,0,0-.586.192.933.933,0,0,0-.176.641v.439h1.382v1.343H-522.1v5.965h-2v-5.965Z" transform="translate(731.858 -5470.354)" fill="#101e8e"/>
    <path id="Path_8988" data-name="Path 8988" d="M-520.029,5606.232h2v1.653h-2Zm2,10.092h-2v-7.308h2Z" transform="translate(732.103 -5470.354)" fill="#101e8e"/>
    <path id="Path_8989" data-name="Path 8989" d="M-513.113,5610.218a1.408,1.408,0,0,0-.8.218,1.737,1.737,0,0,0-.529.566,2.513,2.513,0,0,0-.29.763,4.152,4.152,0,0,0-.084.828,3.959,3.959,0,0,0,.084.805,2.558,2.558,0,0,0,.275.743,1.58,1.58,0,0,0,.515.545,1.421,1.421,0,0,0,.79.211,1.472,1.472,0,0,0,1.108-.4,1.909,1.909,0,0,0,.484-1.082h1.934a3.322,3.322,0,0,1-1.129,2.22,3.638,3.638,0,0,1-2.384.763,4.008,4.008,0,0,1-1.5-.275,3.3,3.3,0,0,1-1.163-.771,3.489,3.489,0,0,1-.748-1.18,4.1,4.1,0,0,1-.268-1.506,4.852,4.852,0,0,1,.247-1.576,3.542,3.542,0,0,1,.726-1.258,3.306,3.306,0,0,1,1.171-.827,3.95,3.95,0,0,1,1.58-.3,4.489,4.489,0,0,1,1.246.169,3.322,3.322,0,0,1,1.073.515,2.791,2.791,0,0,1,.769.862,2.768,2.768,0,0,1,.337,1.225h-1.96a1.343,1.343,0,0,0-1.481-1.258" transform="translate(732.252 -5470.238)" fill="#101e8e"/>
    <path id="Path_8990" data-name="Path 8990" d="M-508.942,5611.15a2.339,2.339,0,0,1,.353-1.175,2.438,2.438,0,0,1,.79-.75,3.47,3.47,0,0,1,1.078-.4,6.2,6.2,0,0,1,1.205-.119,8.21,8.21,0,0,1,1.115.076,3.462,3.462,0,0,1,1.03.3,2.052,2.052,0,0,1,.763.63,1.778,1.778,0,0,1,.3,1.066v3.8a7.629,7.629,0,0,0,.056.947,1.69,1.69,0,0,0,.2.679h-2.031a3.143,3.143,0,0,1-.092-.347,2.935,2.935,0,0,1-.049-.36,2.6,2.6,0,0,1-1.128.692,4.456,4.456,0,0,1-1.326.2,3.594,3.594,0,0,1-.972-.127,2.286,2.286,0,0,1-.79-.4,1.824,1.824,0,0,1-.528-.679,2.278,2.278,0,0,1-.192-.975,2.128,2.128,0,0,1,.219-1.024,1.821,1.821,0,0,1,.564-.646,2.568,2.568,0,0,1,.79-.359,9.125,9.125,0,0,1,.9-.192c.3-.046.6-.083.887-.113a5.384,5.384,0,0,0,.776-.126,1.351,1.351,0,0,0,.536-.249.537.537,0,0,0,.183-.472,1.057,1.057,0,0,0-.106-.517.773.773,0,0,0-.282-.3,1.128,1.128,0,0,0-.41-.14,3.138,3.138,0,0,0-.5-.037,1.522,1.522,0,0,0-.931.254,1.139,1.139,0,0,0-.394.85Zm4.625,1.484a.928.928,0,0,1-.317.176,3.59,3.59,0,0,1-.409.108c-.145.027-.3.051-.458.07s-.319.043-.479.07a3.446,3.446,0,0,0-.445.114,1.312,1.312,0,0,0-.38.189.892.892,0,0,0-.26.3.988.988,0,0,0-.1.467.936.936,0,0,0,.1.452.753.753,0,0,0,.268.291,1.145,1.145,0,0,0,.395.148,2.386,2.386,0,0,0,.466.042,1.765,1.765,0,0,0,.916-.2,1.316,1.316,0,0,0,.479-.477,1.488,1.488,0,0,0,.191-.559,3.841,3.841,0,0,0,.035-.45Z" transform="translate(732.607 -5470.239)" fill="#101e8e"/>
    <path id="Path_8991" data-name="Path 8991" d="M-495.945,5615.39a2.06,2.06,0,0,1-.923.856,3.03,3.03,0,0,1-1.29.263,3.1,3.1,0,0,1-1.439-.318,2.894,2.894,0,0,1-1.023-.861,3.92,3.92,0,0,1-.606-1.252,5.241,5.241,0,0,1-.205-1.47,4.908,4.908,0,0,1,.205-1.42,3.693,3.693,0,0,1,.606-1.21,3.048,3.048,0,0,1,1.009-.841,3.01,3.01,0,0,1,1.411-.316,2.857,2.857,0,0,1,1.234.275,2.144,2.144,0,0,1,.923.813h.029v-3.675h2v10.093h-1.9v-.935Zm-.085-3.609a2.145,2.145,0,0,0-.288-.735,1.64,1.64,0,0,0-.529-.517,1.552,1.552,0,0,0-.818-.2,1.614,1.614,0,0,0-.831.2,1.55,1.55,0,0,0-.544.524,2.3,2.3,0,0,0-.3.743,3.975,3.975,0,0,0-.091.868,3.716,3.716,0,0,0,.1.848,2.3,2.3,0,0,0,.316.757,1.762,1.762,0,0,0,.55.538,1.479,1.479,0,0,0,.8.206,1.592,1.592,0,0,0,.826-.2,1.5,1.5,0,0,0,.527-.529,2.4,2.4,0,0,0,.283-.757,4.45,4.45,0,0,0,.085-.875,4.351,4.351,0,0,0-.085-.87" transform="translate(732.967 -5470.354)" fill="#101e8e"/>
    <path id="Path_8992" data-name="Path 8992" d="M-492.971,5611.15a2.34,2.34,0,0,1,.352-1.175,2.449,2.449,0,0,1,.79-.75,3.487,3.487,0,0,1,1.079-.4,6.2,6.2,0,0,1,1.206-.119,8.233,8.233,0,0,1,1.114.076,3.463,3.463,0,0,1,1.03.3,2.049,2.049,0,0,1,.762.63,1.771,1.771,0,0,1,.3,1.066v3.8a7.629,7.629,0,0,0,.056.947,1.693,1.693,0,0,0,.2.679h-2.03a2.741,2.741,0,0,1-.092-.347,2.947,2.947,0,0,1-.049-.36,2.6,2.6,0,0,1-1.128.692,4.456,4.456,0,0,1-1.326.2,3.6,3.6,0,0,1-.973-.127,2.3,2.3,0,0,1-.79-.4,1.846,1.846,0,0,1-.528-.679,2.3,2.3,0,0,1-.191-.975,2.127,2.127,0,0,1,.22-1.024,1.812,1.812,0,0,1,.564-.646,2.574,2.574,0,0,1,.789-.359,9.143,9.143,0,0,1,.9-.192c.3-.046.6-.083.887-.113a5.408,5.408,0,0,0,.776-.126,1.339,1.339,0,0,0,.535-.249.54.54,0,0,0,.184-.472,1.057,1.057,0,0,0-.106-.517.78.78,0,0,0-.281-.3,1.135,1.135,0,0,0-.41-.14,3.149,3.149,0,0,0-.5-.037,1.518,1.518,0,0,0-.931.254,1.143,1.143,0,0,0-.4.85Zm4.625,1.484a.928.928,0,0,1-.317.176,3.654,3.654,0,0,1-.409.108c-.146.027-.3.051-.458.07s-.319.043-.479.07a3.4,3.4,0,0,0-.445.114,1.316,1.316,0,0,0-.381.189.915.915,0,0,0-.261.3,1,1,0,0,0-.1.467.948.948,0,0,0,.1.452.77.77,0,0,0,.268.291,1.16,1.16,0,0,0,.4.148,2.376,2.376,0,0,0,.465.042,1.769,1.769,0,0,0,.917-.2,1.315,1.315,0,0,0,.479-.477,1.505,1.505,0,0,0,.191-.559,4.089,4.089,0,0,0,.035-.45Z" transform="translate(733.349 -5470.239)" fill="#101e8e"/>
    <path id="Path_9000" data-name="Path 9000" d="M-519.965,5530.379q1.319,0,2.838.029t3.01.171a23.2,23.2,0,0,1,2.779.431,7.053,7.053,0,0,1,2.208.859,10.7,10.7,0,0,1,3.41,3.325,9.251,9.251,0,0,1,1.4,5.215,9.993,9.993,0,0,1-1.575,5.647,9.287,9.287,0,0,1-4.5,3.525v.114a9.429,9.429,0,0,1,5.789,3.441,10.3,10.3,0,0,1,2.006,6.419,12.21,12.21,0,0,1-.8,4.355,10.9,10.9,0,0,1-2.379,3.755,11.9,11.9,0,0,1-3.9,2.638,13.423,13.423,0,0,1-5.36,1h-19.776v-40.929Zm1.491,17.6q4.643,0,6.677-1.633a5.908,5.908,0,0,0,2.035-4.9,7.224,7.224,0,0,0-.688-3.44,4.895,4.895,0,0,0-1.892-1.95,7.443,7.443,0,0,0-2.78-.887,26.5,26.5,0,0,0-3.353-.2h-10.892v13.012Zm2.751,18.745a7.832,7.832,0,0,0,5.647-1.948,7.112,7.112,0,0,0,2.034-5.388,6.684,6.684,0,0,0-.745-3.325,5.8,5.8,0,0,0-1.978-2.093,8.315,8.315,0,0,0-2.838-1.089,17.257,17.257,0,0,0-3.323-.314h-12.439v14.157Z" transform="translate(731.416 -5473.878)" fill="#101e8e"/>
    <path id="Path_9001" data-name="Path 9001" d="M-519.526,5589.024a37.471,37.471,0,0,1-37.429-37.427,37.472,37.472,0,0,1,37.429-37.43A37.472,37.472,0,0,1-482.1,5551.6a37.471,37.471,0,0,1-37.429,37.427m0-70.227a32.836,32.836,0,0,0-32.8,32.8,32.834,32.834,0,0,0,32.8,32.8,32.834,32.834,0,0,0,32.8-32.8,32.836,32.836,0,0,0-32.8-32.8" transform="translate(730.387 -5474.63)" fill="#101e8e"/>
    <rect id="Rectangle_271" data-name="Rectangle 271" width="72.234" height="4.631" transform="translate(174.745 122.711)" fill="#101e8e"/>
    <path id="Path_9002" data-name="Path 9002" d="M-490.117,5589.254V5586.8h1.042a1.791,1.791,0,0,1,.571.065.571.571,0,0,1,.286.236.71.71,0,0,1,.107.387.656.656,0,0,1-.162.458.78.78,0,0,1-.486.227,1.075,1.075,0,0,1,.266.208,2.765,2.765,0,0,1,.283.4l.3.479h-.593l-.357-.534a3.488,3.488,0,0,0-.262-.362.388.388,0,0,0-.149-.1.847.847,0,0,0-.249-.027h-.1v1.026Zm.5-1.418h.366a2.079,2.079,0,0,0,.445-.029.271.271,0,0,0,.138-.1.321.321,0,0,0,.051-.185.3.3,0,0,0-.066-.2.31.31,0,0,0-.187-.1q-.06-.008-.361-.008h-.386Z" transform="translate(733.492 -5471.257)" fill="#101e8e"/>
    <path id="Path_9003" data-name="Path 9003" d="M-488.96,5590.392a2.321,2.321,0,0,1-2.318-2.318,2.32,2.32,0,0,1,2.318-2.319,2.32,2.32,0,0,1,2.318,2.319,2.321,2.321,0,0,1-2.318,2.318m0-4.292a1.977,1.977,0,0,0-1.975,1.975,1.976,1.976,0,0,0,1.975,1.974,1.977,1.977,0,0,0,1.975-1.974,1.977,1.977,0,0,0-1.975-1.975" transform="translate(733.438 -5471.305)" fill="#101e8e"/>
  </g>
</svg>
