<svg xmlns="http://www.w3.org/2000/svg" width="5.413" height="9.529" viewBox="0 0 5.413 9.529">
  <g id="Group_7925" data-name="Group 7925" transform="translate(7.47 -2.942) rotate(90)">
    <g id="Group_2" data-name="Group 2" transform="translate(5 9.529) rotate(-90)">
      <g id="Group_7926" data-name="Group 7926" transform="translate(2.059 7.471) rotate(-90)">
        <path id="Rectangle_5_2" data-name="Rectangle 5_2" d="M340,89.512l4.118,4.118a.648.648,0,0,1,0,.915h0a.648.648,0,0,1-.916,0l-4.117-4.118a.646.646,0,0,1,0-.915h0A.648.648,0,0,1,340,89.512Z" transform="translate(-89.323 344.308) rotate(-90)"/>
        <path id="Rectangle_6_2" data-name="Rectangle 6_2" d="M347.373,90.428l-4.118,4.118a.648.648,0,0,1-.915,0h0a.646.646,0,0,1,0-.915l4.118-4.118a.646.646,0,0,1,.915,0h0A.646.646,0,0,1,347.373,90.428Z" transform="translate(-85.206 347.562) rotate(-90)"/>
      </g>
    </g>
  </g>
</svg>
