<svg xmlns="http://www.w3.org/2000/svg" width="19.1" height="19.098" viewBox="0 0 19.1 19.098"><defs><style>.a,.b{fill:#fff;}.a{fill-rule:evenodd;}</style></defs><g transform="translate(-32.874)"><path class="a" d="M166.156,3127.693a1.05,1.05,0,1,1-1.05-1.048,1.049,1.049,0,0,1,1.05,1.048" transform="translate(-117.396 -3123.273)"/><path class="b" d="M161.465,3138.585a5.233,5.233,0,1,1,5.235-5.232,5.236,5.236,0,0,1-5.235,5.232m0-9.145a3.911,3.911,0,1,0,3.912,3.912,3.916,3.916,0,0,0-3.912-3.912" transform="translate(-119.225 -3123.63)"/><path class="b" d="M166.427,3143.689H158.6a5.643,5.643,0,0,1-5.636-5.634v-7.829a5.641,5.641,0,0,1,5.636-5.635h7.827a5.642,5.642,0,0,1,5.637,5.635v7.829a5.643,5.643,0,0,1-5.637,5.634M158.6,3126a4.23,4.23,0,0,0-4.225,4.226v7.829a4.228,4.228,0,0,0,4.225,4.223h7.827a4.23,4.23,0,0,0,4.226-4.223v-7.829a4.232,4.232,0,0,0-4.226-4.226Z" transform="translate(-120.09 -3124.591)"/></g></svg>