<svg id="Group_1060" data-name="Group 1060" xmlns="http://www.w3.org/2000/svg" width="27.398" height="23.095" viewBox="0 0 27.398 23.095">
  <g id="Group_66" data-name="Group 66">
    <path id="Path_49" data-name="Path 49" d="M1321.616,38.637a.909.909,0,0,0-.731-.364l-20.261.319-.571-3.1a.942.942,0,0,0-.905-.792h-3.8a.984.984,0,0,0,0,1.965h3.043l2.8,15.141a.993.993,0,0,0,.052.184.932.932,0,0,0,.893.74h16.358a.984.984,0,0,0,0-1.964h-5.335l5.848-.977a.942.942,0,0,0,.757-.752l2.041-9.564a1.025,1.025,0,0,0-.183-.836M1302.821,50.5l-1.836-9.948,18.754-.295-1.641,7.7Z" transform="translate(-1294.424 -34.699)" fill="#94d500"/>
    <path id="Path_50" data-name="Path 50" d="M1303.006,51.1a2.181,2.181,0,1,0,2.181,2.181,2.184,2.184,0,0,0-2.181-2.181m.668,2.181a.668.668,0,1,1-.668-.667.668.668,0,0,1,.668.667" transform="translate(-1293.585 -32.366)" fill="#94d500"/>
    <path id="Path_51" data-name="Path 51" d="M1313.62,51.1a2.181,2.181,0,1,0,2.181,2.181,2.183,2.183,0,0,0-2.181-2.181m.668,2.181a.668.668,0,1,1-.668-.667.668.668,0,0,1,.668.667" transform="translate(-1291.387 -32.366)" fill="#94d500"/>
  </g>
</svg>
