<svg xmlns="http://www.w3.org/2000/svg" width="26" height="26" viewBox="0 0 26 26">
  <g id="Group_564" data-name="Group 564" transform="translate(-1290.773 -200.816)">
    <circle id="Ellipse_1" data-name="Ellipse 1" cx="13" cy="13" r="13" transform="translate(1290.773 200.816)" fill="#94d500"/>
    <g id="Group_65" data-name="Group 65" transform="translate(1295.599 205.74)">
      <g id="Group_64" data-name="Group 64">
        <g id="Group_63" data-name="Group 63">
          <path id="Path_47" data-name="Path 47" d="M989.065,42.946a6.7,6.7,0,0,0-9.3,0,6.323,6.323,0,0,0,0,9.076,6.7,6.7,0,0,0,8.4.727,1.329,1.329,0,0,0,.374.679l3.732,3.644a1.412,1.412,0,0,0,1.963,0,1.33,1.33,0,0,0,0-1.917l-3.732-3.646a1.392,1.392,0,0,0-.694-.364,6.312,6.312,0,0,0-.746-8.2Zm-1.178,7.926a5,5,0,0,1-6.937,0,4.715,4.715,0,0,1,0-6.773,4.992,4.992,0,0,1,6.937,0,4.714,4.714,0,0,1,0,6.773Zm0,0" transform="translate(-977.85 -41.071)" fill="#101e8e"/>
        </g>
      </g>
    </g>
  </g>
</svg>
