<svg id="Group_1051" data-name="Group 1051" xmlns="http://www.w3.org/2000/svg" width="74.164" height="11.817" viewBox="0 0 74.164 11.817">
  <g id="Group_1049" data-name="Group 1049" transform="translate(0 0.865)">
    <path id="Path_8910" data-name="Path 8910" d="M3.124,12.038a.127.127,0,0,1-.031,0,.113.113,0,0,1-.03,0c-1.256,0-1.916-1.238-1.916-2.476s.662-2.477,1.929-2.477l.017,0,.018,0c1.267,0,1.929,1.238,1.929,2.477s-.66,2.476-1.916,2.476M1.174,5.719c0-.7.232-1.028.531-1.028a.275.275,0,0,1,.293.3,1.342,1.342,0,0,1-.824,1.04Zm1.941.806A2.343,2.343,0,0,0,1.174,7.577V6.618A1.9,1.9,0,0,0,2.526,4.995.733.733,0,0,0,1.718,4.2c-.6,0-1.081.4-1.081,1.519V6.2a1.5,1.5,0,0,1-.294.071H.261A.245.245,0,0,0,0,6.526a.263.263,0,0,0,.267.263s.013-.005.017-.005a1.806,1.806,0,0,0,.354-.026v1.9a4.371,4.371,0,0,0,.368,2.624,2.53,2.53,0,0,0,2.126,1.3c1.58.06,2.464-1.506,2.464-3.025s-.81-3.037-2.48-3.037" transform="translate(0 -4.2)" fill="#0db7e1"/>
    <path id="Path_8911" data-name="Path 8911" d="M61.388,12.038a.125.125,0,0,1-.031,0,.117.117,0,0,1-.031,0c-1.255,0-1.916-1.238-1.916-2.476s.663-2.477,1.93-2.477l.017,0,.018,0c1.267,0,1.93,1.238,1.93,2.477s-.66,2.476-1.916,2.476M59.417,5.719c0-.7.243-1.028.543-1.028a.271.271,0,0,1,.287.3,1.349,1.349,0,0,1-.83,1.04Zm1.952.806a2.362,2.362,0,0,0-1.952,1.052V6.618A1.919,1.919,0,0,0,60.78,4.995a.738.738,0,0,0-.813-.795c-.6,0-1.087.4-1.087,1.519V6.2a1.268,1.268,0,0,1-.272.071h-.082a.245.245,0,0,0-.262.257.263.263,0,0,0,.268.263s0-.005.006-.005a1.693,1.693,0,0,0,.342-.026v1.9a4.383,4.383,0,0,0,.379,2.624,2.538,2.538,0,0,0,2.131,1.3c1.579.06,2.461-1.506,2.461-3.025s-.813-3.037-2.483-3.037" transform="translate(-46.262 -4.2)" fill="#0db7e1"/>
    <path id="Path_8912" data-name="Path 8912" d="M34.078,16.107a1.948,1.948,0,0,1,1.938,2.159H32.061a2.062,2.062,0,0,1,2.017-2.159m2.467,2.151a2.38,2.38,0,0,0-2.467-2.649A2.68,2.68,0,0,0,31.5,18.57,2.746,2.746,0,0,0,34.122,21.6a2.44,2.44,0,0,0,2.084-1.121c.01-.016.022-.032.033-.049s.007-.012.011-.02a.278.278,0,0,0,.023-.112.268.268,0,0,0-.262-.273.26.26,0,0,0-.209.109h0v0l-.016.024a1.857,1.857,0,0,1-1.663.886c-1.194,0-1.971-.821-2.061-2.236h3.83c.5,0,.653-.2.653-.552" transform="translate(-25.008 -13.259)" fill="#0db7e1"/>
    <path id="Path_8913" data-name="Path 8913" d="M92.4,16.107a1.948,1.948,0,0,1,1.938,2.159H90.379A2.061,2.061,0,0,1,92.4,16.107m2.467,2.151A2.38,2.38,0,0,0,92.4,15.609a2.68,2.68,0,0,0-2.581,2.961A2.746,2.746,0,0,0,92.441,21.6a2.438,2.438,0,0,0,2.083-1.121c.011-.016.023-.032.033-.049a.1.1,0,0,0,.011-.02.278.278,0,0,0,.023-.112.268.268,0,0,0-.262-.273.259.259,0,0,0-.209.109h0v0a.2.2,0,0,1-.015.024,1.857,1.857,0,0,1-1.662.886c-1.195,0-1.972-.821-2.062-2.236H94.21c.5,0,.653-.2.653-.552" transform="translate(-71.313 -13.259)" fill="#0db7e1"/>
    <path id="Path_8914" data-name="Path 8914" d="M99.561,5.474a.324.324,0,0,0-.143.034.33.33,0,0,0-.093.066.318.318,0,0,0-.047.06l-.833,1.126a.3.3,0,0,0,.231.5.294.294,0,0,0,.208-.086l.91-1.107.045-.053a.331.331,0,0,0,.041-.089.321.321,0,0,0,.018-.1.339.339,0,0,0-.336-.341" transform="translate(-78.11 -5.212)" fill="#0db7e1"/>
  </g>
  <g id="Group_1050" data-name="Group 1050" transform="translate(23.306)">
    <path id="Path_8915" data-name="Path 8915" d="M241.4,17.471a1.112,1.112,0,0,1,1.115-1,.965.965,0,0,1,1.021,1Zm1.138-2.481a3.008,3.008,0,0,0-3.1,3.119c0,1.89,1.245,3.024,3.241,3.024,1.644,0,2.548-.591,2.548-1.37a.938.938,0,0,0-.739-.895c-.033-.009-.064-.018-.094-.025a.332.332,0,0,0-.281.1l-.045.059a1.619,1.619,0,0,1-1.285.562,1.224,1.224,0,0,1-1.35-.922h3.675c.341,0,.446-.248.458-.591v-.141a2.861,2.861,0,0,0-3.029-2.918" transform="translate(-213.417 -11.902)" fill="#91ca6a"/>
    <path id="Path_8916" data-name="Path 8916" d="M275.471,13.342a.338.338,0,0,0-.06-.085.332.332,0,0,0-.237-.1.328.328,0,0,0-.188.059l-.051.043a.7.7,0,0,1-.447.149c-.34,0-.493-.2-.493-.59V10.857h.693c.6,0,.9-.284.9-.815V9.923c0-.519-.282-.78-.881-.78h-.67V8.577c0-.839-.41-1.1-1.01-1.1h-.188c-.645,0-1.009.378-1.009,1.1v.567H271.7c-.611,0-.916.283-.916.815v.131c0,.5.317.768.916.768h.129v2.209c0,1.394.657,2.1,2.043,2.1,1.068,0,1.75-.532,1.75-1.288a1.015,1.015,0,0,0-.156-.539" transform="translate(-238.308 -5.937)" fill="#00a85d"/>
    <path id="Path_8917" data-name="Path 8917" d="M174.293,18.482c0,.574-.193,1.227-1.074,1.251-.662.018-1.1-.734-1.1-1.39,0-.631.445-1.389,1.119-1.389a1.24,1.24,0,0,1,1.05.529Zm2.18-2.767a.319.319,0,0,0-.183-.256.044.044,0,0,1-.013-.006,1.855,1.855,0,0,0-.649-.118,1.189,1.189,0,0,0-1.188.769,2.154,2.154,0,0,0-1.815-.827,2.8,2.8,0,0,0-2.58,3.043c0,1.734.982,3.022,2.534,3.065a2.584,2.584,0,0,0,1.7-.356c0,.781-.408,1.107-1.3,1.148a1.913,1.913,0,0,1-1.61-.621l-.006-.006a.307.307,0,0,0-.22-.091.311.311,0,0,0-.151.041l-.033.021a1.042,1.042,0,0,0-.514.83c0,.827.868,1.6,2.694,1.6,2.283,0,3.334-.942,3.334-3V15.779c0-.01,0-.021,0-.032s0-.021,0-.032" transform="translate(-158.32 -12.131)" fill="#f58647"/>
    <path id="Path_8918" data-name="Path 8918" d="M121.43,0a1.1,1.1,0,0,0-1.235,1.108,1.117,1.117,0,0,0,1.272,1.12,1.1,1.1,0,0,0,1.235-1.12C122.7.418,122.213,0,121.43,0" transform="translate(-118.739)" fill="#c1529e"/>
    <path id="Path_8919" data-name="Path 8919" d="M115.977,15.168h-.246c-.6,0-1.06.286-1.06,1.153v5.146c0,.372-.173.558-.493.558a.836.836,0,0,1-.379-.09l-.039-.021a.349.349,0,0,0-.432.124l0,0a1.132,1.132,0,0,0-.195.6c0,.818.617,1.215,1.677,1.215a2.039,2.039,0,0,0,2.231-2.268v-5.27c0-.893-.419-1.153-1.06-1.153" transform="translate(-113.129 -12.043)" fill="#c1529e"/>
    <path id="Path_8920" data-name="Path 8920" d="M330.986,18.35v1.823c0,.827.411,1.068.993,1.068h.229c.571,0,.97-.264.97-1.068V17.966c.016-.772.48-.839.846-.839.468,0,.742.322.742.839v2.206c0,.827.41,1.068,1,1.068h.217c.571,0,.971-.264.971-1.068V18.031a2.86,2.86,0,0,0-1.121-2.215,3.522,3.522,0,0,0-1.832-.556,3.111,3.111,0,0,0-2.28.982,2.924,2.924,0,0,0-.739,2.108" transform="translate(-286.101 -12.116)" fill="#0db7e1"/>
    <path id="Path_8921" data-name="Path 8921" d="M212.24,18.664V16.842c0-.827-.411-1.068-.993-1.068h-.228c-.572,0-.971.264-.971,1.068v2.206c-.015.773-.48.839-.846.839-.468,0-.742-.322-.742-.839V16.842c0-.827-.411-1.068-1-1.068h-.217c-.57,0-.97.264-.97,1.068v2.141a2.858,2.858,0,0,0,1.121,2.215,3.521,3.521,0,0,0,1.83.557,3.116,3.116,0,0,0,2.281-.983,2.919,2.919,0,0,0,.739-2.108" transform="translate(-187.08 -12.524)" fill="#ffc523"/>
    <path id="Path_8922" data-name="Path 8922" d="M142.943,18.664V16.842c0-.827-.412-1.068-.994-1.068h-.228c-.571,0-.97.264-.97,1.068v2.206c-.016.773-.48.839-.845.839-.469,0-.742-.322-.742-.839V16.842c0-.827-.411-1.068-1.005-1.068h-.217c-.571,0-.971.264-.971,1.068v2.141a2.861,2.861,0,0,0,1.121,2.215,3.526,3.526,0,0,0,1.831.557,3.117,3.117,0,0,0,2.281-.983,2.928,2.928,0,0,0,.74-2.108" transform="translate(-132.058 -12.524)" fill="#f0515f"/>
    <path id="Path_8923" data-name="Path 8923" d="M299.337,19.237a1.322,1.322,0,1,1,1.248-1.314,1.247,1.247,0,0,1-1.248,1.314m.024-4.338a2.917,2.917,0,0,0-3.156,3.012,3.135,3.135,0,0,0,6.266.012,2.9,2.9,0,0,0-3.11-3.024" transform="translate(-258.488 -11.83)" fill="#ef5382"/>
    <path id="Path_8924" data-name="Path 8924" d="M308.682,3.016c-.146-.061-.346.048-.472.116a2.313,2.313,0,0,0-.425.3,6.175,6.175,0,0,0-.6.6,1.992,1.992,0,0,0-.337.521.339.339,0,0,0,.344.455,4.871,4.871,0,0,0,1.7-.486c.378-.212.6-.379.507-.735a1.248,1.248,0,0,0-.721-.768" transform="translate(-266.924 -2.381)" fill="#ef5382"/>
  </g>
</svg>
