<svg xmlns="http://www.w3.org/2000/svg" width="27" height="27" viewBox="0 0 27 27"><defs><style>.a{fill:#94d500;}.b{fill:#101e8e;}</style></defs><circle class="a" cx="13.5" cy="13.5" r="13.5"/><g transform="translate(10.174 19.967) rotate(-90)"><path class="b" d="M1.577.27,7.455,6.148a.925.925,0,0,1,0,1.306h0a.924.924,0,0,1-1.308,0L.271,1.575A.922.922,0,0,1,.271.27h0A.925.925,0,0,1,1.577.27Z" transform="translate(0)"/><path class="b" d="M7.455,1.577,1.577,7.455a.925.925,0,0,1-1.306,0h0a.922.922,0,0,1,0-1.306L6.149.271a.922.922,0,0,1,1.306,0h0A.922.922,0,0,1,7.455,1.577Z" transform="translate(5.877 0)"/></g></svg>