<svg xmlns="http://www.w3.org/2000/svg" width="49.76" height="9.178" viewBox="0 0 49.76 9.178">
  <g id="Group_1114" data-name="Group 1114" transform="translate(-78.567 -473.928)">
    <path id="Path_8976" data-name="Path 8976" d="M-617.368,5934.648h2.277V5932.8h-2.277v-1.522h3.191l-.386-1.854h-4.99v8.769h5.1l.542-1.85h-3.462Z" transform="translate(705.651 -5455.288)" fill="#fff"/>
    <path id="Path_8977" data-name="Path 8977" d="M-607.3,5929.275l-2.869,5.37-2.777-5.37h-.025l-2.418,8.874,2.238.3.759-4.2h.025l2.109,4.2h.027l2.315-4.216h.027l.757,4.216,2.2-.3-2.34-8.874Z" transform="translate(707.304 -5455.346)" fill="#fff"/>
    <path id="Path_8978" data-name="Path 8978" d="M-596.526,5936.458a2.454,2.454,0,0,1-2.547-2.621,2.454,2.454,0,0,1,2.547-2.569,2.6,2.6,0,0,1,1.347.454l-.516-2.326a3.9,3.9,0,0,0-1-.123,4.453,4.453,0,0,0-4.565,4.615,4.358,4.358,0,0,0,4.578,4.563,5.569,5.569,0,0,0,1.545-.315,2.09,2.09,0,0,0,.376-.223l.085-2.245s-.082.061-.193.137a3.035,3.035,0,0,1-1.658.652" transform="translate(712.914 -5455.346)" fill="#fff"/>
    <path id="Path_8979" data-name="Path 8979" d="M-620.211,5936.458a2.454,2.454,0,0,1-2.547-2.621,2.455,2.455,0,0,1,2.547-2.569,2.6,2.6,0,0,1,1.347.454l-.516-2.326a3.9,3.9,0,0,0-1-.123,4.453,4.453,0,0,0-4.565,4.615,4.359,4.359,0,0,0,4.579,4.563,5.56,5.56,0,0,0,1.542-.315,2.229,2.229,0,0,0,.379-.223l.085-2.245s-.084.061-.194.137a3.039,3.039,0,0,1-1.658.652" transform="translate(703.511 -5455.346)" fill="#fff"/>
    <path id="Path_8980" data-name="Path 8980" d="M-591.357,5929.274a4.654,4.654,0,0,0-4.708,4.59,4.651,4.651,0,0,0,4.708,4.588,4.65,4.65,0,0,0,4.708-4.588,4.653,4.653,0,0,0-4.708-4.59m0,7.185a2.619,2.619,0,0,1-2.52-2.594,2.62,2.62,0,0,1,2.52-2.6,2.621,2.621,0,0,1,2.522,2.6,2.62,2.62,0,0,1-2.522,2.594" transform="translate(714.976 -5455.346)" fill="#fff"/>
    <path id="Path_8981" data-name="Path 8981" d="M-604.167,5934.95-603,5932.8l1.172,2.147Zm1.171-5.675-4.708,8.734,2.123.442.887-1.876h3.357l.9,1.876,2.227-.442-4.76-8.734Z" transform="translate(710.355 -5455.346)" fill="#fff"/>
  </g>
</svg>
