<svg xmlns="http://www.w3.org/2000/svg" width="12.748" height="22.447" viewBox="0 0 12.748 22.447">
  <g id="Group_998" data-name="Group 998" transform="translate(-722.136 -101.807)">
    <path id="Rectangle_5_2" data-name="Rectangle 5_2" d="M2.6.445l9.7,9.7a1.527,1.527,0,0,1,0,2.155h0a1.525,1.525,0,0,1-2.158,0L.447,2.6a1.522,1.522,0,0,1,0-2.155h0A1.527,1.527,0,0,1,2.6.445Z" transform="translate(722.136 124.254) rotate(-90)" fill="#94d500"/>
    <path id="Rectangle_6_2" data-name="Rectangle 6_2" d="M12.3,2.6,2.6,12.3a1.527,1.527,0,0,1-2.155,0h0a1.522,1.522,0,0,1,0-2.155l9.7-9.7a1.522,1.522,0,0,1,2.155,0h0A1.522,1.522,0,0,1,12.3,2.6Z" transform="translate(722.136 114.556) rotate(-90)" fill="#94d500"/>
  </g>
</svg>
