<svg xmlns="http://www.w3.org/2000/svg" width="60.834" height="8.561" viewBox="0 0 60.834 8.561">
  <g id="Icono-Estrella-Reseña-4" transform="translate(0 0.5)">
    <path id="Path_8775" data-name="Path 8775" d="M434.033,402l.9,1.819a.414.414,0,0,0,.312.227l2.008.292a.416.416,0,0,1,.23.709l-1.452,1.417a.414.414,0,0,0-.12.368l.343,2a.416.416,0,0,1-.6.438l-1.8-.944a.413.413,0,0,0-.387,0l-1.8.944a.416.416,0,0,1-.6-.438l.343-2a.415.415,0,0,0-.119-.368l-1.452-1.417a.416.416,0,0,1,.23-.709l2.007-.292a.414.414,0,0,0,.313-.227l.9-1.819A.416.416,0,0,1,434.033,402Z" transform="translate(-403.497 -401.768)" fill="#ffc523"/>
    <path id="Path_8776" data-name="Path 8776" d="M451.613,402l.9,1.819a.414.414,0,0,0,.312.227l2.008.292a.416.416,0,0,1,.23.709l-1.452,1.417a.414.414,0,0,0-.12.368l.343,2a.416.416,0,0,1-.6.438l-1.8-.944a.413.413,0,0,0-.387,0l-1.8.944a.415.415,0,0,1-.6-.438l.342-2a.412.412,0,0,0-.119-.368l-1.452-1.417a.416.416,0,0,1,.23-.709l2.007-.292a.414.414,0,0,0,.313-.227l.9-1.819A.416.416,0,0,1,451.613,402Z" transform="translate(-407.969 -401.768)" fill="#ffc523"/>
    <path id="Path_8777" data-name="Path 8777" d="M469.193,402l.9,1.819a.414.414,0,0,0,.313.227l2.007.292a.416.416,0,0,1,.23.709l-1.452,1.417a.414.414,0,0,0-.12.368l.343,2a.416.416,0,0,1-.6.438l-1.8-.944a.413.413,0,0,0-.387,0l-1.8.944a.416.416,0,0,1-.6-.438l.343-2a.414.414,0,0,0-.12-.368L465,405.047a.416.416,0,0,1,.23-.709l2.007-.292a.414.414,0,0,0,.313-.227l.9-1.819A.415.415,0,0,1,469.193,402Z" transform="translate(-412.442 -401.768)" fill="none" stroke="#ffc523" stroke-miterlimit="10" stroke-width="1"/>
    <path id="Path_8778" data-name="Path 8778" d="M398.873,402l.9,1.819a.416.416,0,0,0,.313.227l2.008.292a.416.416,0,0,1,.23.709l-1.452,1.417a.414.414,0,0,0-.12.368l.343,2a.416.416,0,0,1-.6.438l-1.8-.944a.413.413,0,0,0-.387,0l-1.8.944a.416.416,0,0,1-.6-.438l.343-2a.415.415,0,0,0-.119-.368l-1.453-1.417a.416.416,0,0,1,.23-.709l2.008-.292a.414.414,0,0,0,.313-.227l.9-1.819A.416.416,0,0,1,398.873,402Z" transform="translate(-394.552 -401.768)" fill="#ffc523"/>
    <path id="Path_8779" data-name="Path 8779" d="M416.453,402l.9,1.819a.414.414,0,0,0,.312.227l2.008.292a.416.416,0,0,1,.23.709l-1.452,1.417a.414.414,0,0,0-.12.368l.343,2a.416.416,0,0,1-.6.438l-1.8-.944a.413.413,0,0,0-.387,0l-1.8.944a.416.416,0,0,1-.6-.438l.343-2a.416.416,0,0,0-.119-.368l-1.453-1.417a.416.416,0,0,1,.23-.709l2.008-.292a.414.414,0,0,0,.313-.227l.9-1.819A.416.416,0,0,1,416.453,402Z" transform="translate(-399.025 -401.768)" fill="#ffc523"/>
  </g>
</svg>
