<svg xmlns="http://www.w3.org/2000/svg" xmlns:xlink="http://www.w3.org/1999/xlink" width="66.024" height="15.052" viewBox="0 0 66.024 15.052">
  <defs>
    <clipPath id="clip-path">
      <rect id="Rectangle_110" data-name="Rectangle 110" width="66.024" height="15.052" fill="none"/>
    </clipPath>
  </defs>
  <g id="LOGO_CEMACO_HORIZONTAL_BLANCO" data-name="LOGO CEMACO HORIZONTAL  BLANCO" transform="translate(33.012 7.526)">
    <g id="Group_572" data-name="Group 572" transform="translate(-33.012 -7.526)">
      <path id="Path_8594" data-name="Path 8594" d="M547.515,115.995h2.309v-1.878h-2.309v-1.542h3.233l-.392-1.874H545.3v8.881h5.175l.545-1.874h-3.506Z" transform="translate(-522.072 -105.985)" fill="#fff"/>
      <path id="Path_8595" data-name="Path 8595" d="M691.9,105.8l-2.905,5.44-2.82-5.44h-.025l-2.45,8.992,2.266.307.771-4.26h.025l2.138,4.26h.025l2.347-4.272h.026l.771,4.272,2.228-.307-2.373-8.992Z" transform="translate(-654.577 -101.293)" fill="#fff"/>
      <path id="Path_8596" data-name="Path 8596" d="M942.782,111.55l1.188-2.177,1.185,2.177Zm1.188-5.75-4.771,8.851,2.151.452.9-1.9h3.4l.916,1.9,2.253-.452-4.826-8.851Z" transform="translate(-899.193 -101.293)" fill="#fff"/>
      <g id="Group_571" data-name="Group 571" clip-path="url(#clip-path)">
        <path id="Path_8597" data-name="Path 8597" d="M1158.1,112.976a2.631,2.631,0,0,1,0-5.261,2.651,2.651,0,0,1,1.367.46l-.524-2.356a3.915,3.915,0,0,0-1.014-.124,4.51,4.51,0,0,0-4.626,4.677,4.415,4.415,0,0,0,4.639,4.626,5.613,5.613,0,0,0,1.563-.32,1.755,1.755,0,0,0,.383-.226l.085-2.275-.2.136a3.067,3.067,0,0,1-1.678.66" transform="translate(-1104.174 -101.194)" fill="#fff"/>
        <path id="Path_8598" data-name="Path 8598" d="M370.992,112.977a2.631,2.631,0,0,1,0-5.261,2.652,2.652,0,0,1,1.367.46l-.52-2.356a3.947,3.947,0,0,0-1.014-.124,4.512,4.512,0,0,0-4.626,4.677A4.418,4.418,0,0,0,370.843,115a5.614,5.614,0,0,0,1.563-.319,1.751,1.751,0,0,0,.383-.226l.085-2.275-.2.136a3.08,3.08,0,0,1-1.683.66" transform="translate(-350.601 -101.194)" fill="#fff"/>
        <path id="Path_8599" data-name="Path 8599" d="M1330.771,105.8a4.653,4.653,0,1,0,4.77,4.652,4.714,4.714,0,0,0-4.77-4.652m0,7.28a2.631,2.631,0,1,1,2.556-2.628,2.655,2.655,0,0,1-2.556,2.628" transform="translate(-1269.518 -101.293)" fill="#fff"/>
        <path id="Path_8600" data-name="Path 8600" d="M6.739,9.312A1.137,1.137,0,0,0,7.816,10.4,1.758,1.758,0,0,0,9.742,8.443,2.545,2.545,0,0,0,7.1,6.2,3.145,3.145,0,0,0,3.8,9.452c0,2.219,1.913,4.145,5.763,4.145h2.454V6.134L6.641,1.81,1.423,5.976v9.077H0V5.188L6.641,0l6.8,5.427v9.627H8.621c-3.57,0-6.436-2.224-6.436-5.6A4.688,4.688,0,0,1,7.1,4.711a3.856,3.856,0,0,1,4.059,3.736,3.076,3.076,0,0,1-3.34,3.344A2.56,2.56,0,0,1,5.231,9.243,1.937,1.937,0,0,1,7.1,7.284c.877,0,1.465.507,1.465,1.116a.718.718,0,0,1-.758.767.955.955,0,0,1-.758-.473.71.71,0,0,0-.307.618" fill="#94d500"/>
      </g>
    </g>
  </g>
</svg>
