<svg xmlns="http://www.w3.org/2000/svg" width="25.842" height="23.095" viewBox="0 0 25.842 23.095">
  <path id="Path_8953" data-name="Path 8953" d="M1280.712,38.152a7.157,7.157,0,0,0-5.324-2.319,6.712,6.712,0,0,0-4.2,1.449,8.171,8.171,0,0,0-1.3,1.256,8.279,8.279,0,0,0-1.293-1.256,6.727,6.727,0,0,0-4.2-1.449,7.167,7.167,0,0,0-5.326,2.319,8.25,8.25,0,0,0-2.1,5.634,9.7,9.7,0,0,0,2.577,6.367,52.789,52.789,0,0,0,6.245,5.867c.855.727,1.824,1.553,2.828,2.432a1.932,1.932,0,0,0,2.543,0c.916-.8,1.8-1.558,2.6-2.238l.23-.2a52.8,52.8,0,0,0,6.241-5.862,9.714,9.714,0,0,0,2.577-6.367A8.249,8.249,0,0,0,1280.712,38.152Zm-.294,5.634a7.367,7.367,0,0,1-2.027,4.838,51.611,51.611,0,0,1-5.948,5.566c-.775.66-1.642,1.4-2.55,2.186-.9-.787-1.772-1.527-2.577-2.209a51.179,51.179,0,0,1-5.92-5.545,7.349,7.349,0,0,1-2.026-4.837,5.875,5.875,0,0,1,1.463-4.01,4.8,4.8,0,0,1,3.564-1.547,4.384,4.384,0,0,1,2.734.947A6.588,6.588,0,0,1,1268.7,41a1.437,1.437,0,0,0,2.386,0,6.644,6.644,0,0,1,1.569-1.818,4.73,4.73,0,0,1,6.3.6A5.87,5.87,0,0,1,1280.418,43.786Z" transform="translate(-1256.972 -35.833)" fill="#94d500"/>
</svg>
