<svg xmlns="http://www.w3.org/2000/svg" width="17.328" height="12.702" viewBox="0 0 17.328 12.702">
  <path id="Path_9008" data-name="Path 9008" d="M-577.128,6019.144h-12.723a2.3,2.3,0,0,0-2.3,2.3v8.095a2.307,2.307,0,0,0,2.3,2.3h12.723a2.307,2.307,0,0,0,2.3-2.3v-8.095a2.3,2.3,0,0,0-2.3-2.3m-6.381,7.1-6.128-5.7h12.291Zm7.279-4.8v8.095a.9.9,0,0,1-.9.9h-12.723a.9.9,0,0,1-.9-.9v-8.109l6.76,6.285a.7.7,0,0,0,.478.188.705.705,0,0,0,.478-.187l6.8-6.29v.017" transform="translate(592.154 -6019.144)" fill="#fff"/>
</svg>
