<svg xmlns="http://www.w3.org/2000/svg" width="16.841" height="16.074" viewBox="0 0 16.841 16.074">
  <path id="Path_9009" data-name="Path 9009" d="M-439.218,6016.089c4.588,0,8.421,3.054,8.421,6.969a6.29,6.29,0,0,1-2.936,5.077l1.357,3.229a.575.575,0,0,1-.3.753.575.575,0,0,1-.5-.024l-4.049-2.212a14.122,14.122,0,0,1-1.991.15c-4.587,0-8.42-3.06-8.42-6.974s3.833-6.969,8.42-6.969m0,1.149c-4.081,0-7.272,2.665-7.272,5.819s3.191,5.824,7.272,5.824a13.554,13.554,0,0,0,2-.154.564.564,0,0,1,.382.059l2.77,1.513-.892-2.123a.577.577,0,0,1,.216-.706,5.274,5.274,0,0,0,2.8-4.412c0-3.154-3.191-5.819-7.272-5.819" transform="translate(447.638 -6016.089)" fill="#fff"/>
</svg>
