<svg xmlns="http://www.w3.org/2000/svg" width="18.495" height="16.454" viewBox="0 0 18.495 16.454">
  <path id="Path_8804" data-name="Path 8804" d="M263.387,1374.239a1.092,1.092,0,0,1-.716-.268c-.747-.653-1.466-1.267-2.1-1.808l0,0a38.65,38.65,0,0,1-4.592-4.31,6.88,6.88,0,0,1-1.835-4.507,5.782,5.782,0,0,1,1.466-3.947,4.978,4.978,0,0,1,3.7-1.611,4.648,4.648,0,0,1,2.906,1,5.922,5.922,0,0,1,1.175,1.225,5.831,5.831,0,0,1,1.176-1.225,4.639,4.639,0,0,1,2.905-1,4.968,4.968,0,0,1,3.7,1.611,5.772,5.772,0,0,1,1.469,3.947,6.885,6.885,0,0,1-1.834,4.507,38.858,38.858,0,0,1-4.592,4.31c-.636.543-1.359,1.158-2.107,1.812a1.084,1.084,0,0,1-.715.268" transform="translate(-254.14 -1357.785)" fill="#ccc"/>
</svg>
