<svg xmlns="http://www.w3.org/2000/svg" width="24" height="24" viewBox="0 0 24 24">
  <path id="Path_8954" data-name="Path 8954" d="M1710.682-144.144a11.922,11.922,0,0,0-8.485,3.514,11.922,11.922,0,0,0-3.515,8.486,11.959,11.959,0,0,0,4.428,9.309,11.96,11.96,0,0,0,3.484,1.976,11.958,11.958,0,0,0,4.088.715,11.97,11.97,0,0,0,4.089-.714,11.922,11.922,0,0,0,3.482-1.977,11.954,11.954,0,0,0,4.429-9.309,11.922,11.922,0,0,0-3.514-8.486A11.921,11.921,0,0,0,1710.682-144.144Zm3.486,21.623a10.206,10.206,0,0,1-3.486.609,10.2,10.2,0,0,1-3.485-.609,10.2,10.2,0,0,1-2.964-1.68,7.105,7.105,0,0,1,2.341-2.822,7.045,7.045,0,0,1,4.093-1.309h.02a7.049,7.049,0,0,1,4.1,1.309,7.1,7.1,0,0,1,2.341,2.822,10.153,10.153,0,0,1-2.962,1.681Zm-.212-10.854a3.281,3.281,0,0,1-3.279,3.274,3.279,3.279,0,0,1-3.269-3.274,3.278,3.278,0,0,1,3.274-3.274A3.278,3.278,0,0,1,1713.957-133.375Zm1.769,0a5.049,5.049,0,0,0-5.043-5.043,5.049,5.049,0,0,0-5.043,5.043,5.038,5.038,0,0,0,1.822,3.877,8.843,8.843,0,0,0-1.912,1.033,8.907,8.907,0,0,0-2.644,2.97,10.185,10.185,0,0,1-2.455-6.649,10.164,10.164,0,0,1,3-7.235,10.164,10.164,0,0,1,7.234-3,10.164,10.164,0,0,1,7.235,3,10.164,10.164,0,0,1,3,7.235,10.187,10.187,0,0,1-2.454,6.649,8.907,8.907,0,0,0-2.645-2.97,8.836,8.836,0,0,0-1.911-1.033A5.039,5.039,0,0,0,1715.725-133.375Z" transform="translate(-1698.682 144.144)" fill="#94d529"/>
</svg>
