<svg xmlns="http://www.w3.org/2000/svg" width="15.672" height="15.226" viewBox="0 0 15.672 15.226">
  <path id="Path_9007" data-name="Path 9007" d="M-431.642,5980.685l-3.461-2.981a.677.677,0,0,0-.5-.159.668.668,0,0,0-.462.246,1.984,1.984,0,0,1-1.125.7.757.757,0,0,1-.582-.269l-3.57-3.406a.747.747,0,0,1-.266-.579,1.979,1.979,0,0,1,.7-1.123.665.665,0,0,0,.248-.462.677.677,0,0,0-.159-.5l-2.981-3.459a.67.67,0,0,0-.852-.141,5.6,5.6,0,0,0-1.712,1.726,4.906,4.906,0,0,0-.047,5.057,18.607,18.607,0,0,0,4.415,5.288,30.379,30.379,0,0,0,2.863,2.243l.014.009a5.934,5.934,0,0,0,2.4.777,5.583,5.583,0,0,0,.606.032,6.3,6.3,0,0,0,4.509-2.014.675.675,0,0,0,.2-.5.675.675,0,0,0-.233-.483m-11.311-6.519a2.087,2.087,0,0,0,.661,1.609l3.572,3.407a2.082,2.082,0,0,0,1.605.657,2.808,2.808,0,0,0,1.6-.71l2.413,2.079a4.635,4.635,0,0,1-3.445,1.11,4.725,4.725,0,0,1-1.846-.575,29.415,29.415,0,0,1-2.716-2.13,17.534,17.534,0,0,1-4.1-4.882,3.62,3.62,0,0,1-.028-3.711,4.251,4.251,0,0,1,.827-.97l2.166,2.515a2.807,2.807,0,0,0-.711,1.6" transform="translate(447.08 -5968.458)" fill="#fff"/>
</svg>
