<svg xmlns="http://www.w3.org/2000/svg" width="15.976" height="15.976" viewBox="0 0 15.976 15.976">
  <path id="Path_9006" data-name="Path 9006" d="M-575.531,5974.171a7.858,7.858,0,0,0-7.864-7.6,7.776,7.776,0,0,0-7.8,7.438,1.26,1.26,0,0,0-.029.348,7.614,7.614,0,0,0,1.136,4.019l-1.42,4.171,4.354-1.391a8.078,8.078,0,0,0,3.793.952,7.806,7.806,0,0,0,7.829-7.786Zm-4.261,1.77c-.189-.1-1.135-.568-1.3-.633-.189-.065-.314-.094-.444.094s-.5.6-.6.729a.3.3,0,0,1-.414.065,4.527,4.527,0,0,1-1.545-.953,6.072,6.072,0,0,1-1.071-1.295.317.317,0,0,1,.06-.409,3.253,3.253,0,0,0,.284-.319c.036-.029.065-.059.065-.1.065-.065.065-.124.125-.219a.276.276,0,0,0-.03-.319c-.029-.1-.408-1.041-.6-1.42-.159-.378-.319-.319-.413-.319-.124,0-.255-.031-.379-.031a.588.588,0,0,0-.5.255,2.024,2.024,0,0,0-.7,1.579,1.444,1.444,0,0,0,.13.634,4.169,4.169,0,0,0,.664,1.324,7.736,7.736,0,0,0,3.284,2.882c1.958.758,1.958.51,2.3.473a1.858,1.858,0,0,0,1.3-.917,1.416,1.416,0,0,0,.094-.917c0-.029-.123-.094-.314-.189m-3.6,4.964a6.794,6.794,0,0,1-3.627-1.07l-2.527.787.823-2.433a6.454,6.454,0,0,1-1.266-3.829,4.364,4.364,0,0,1,.03-.632,6.591,6.591,0,0,1,6.568-5.918,6.555,6.555,0,0,1,6.568,6.042,2.456,2.456,0,0,1,.036.509,6.571,6.571,0,0,1-6.6,6.544" transform="translate(591.507 -5966.574)" fill="#fff" fill-rule="evenodd"/>
</svg>
