<svg xmlns="http://www.w3.org/2000/svg" width="20.52" height="15.769" viewBox="0 0 20.52 15.769"><defs><style>.a{fill:#fff;fill-rule:evenodd;}</style></defs><path class="a" d="M276.832,3128.159a9.534,9.534,0,0,1-2.393.613,4.024,4.024,0,0,0,1.866-2.216,9.412,9.412,0,0,1-2.678.979,4.485,4.485,0,0,0-3.123-1.254,4.121,4.121,0,0,0-4.215,3.972,3.2,3.2,0,0,0,.122.9,12.124,12.124,0,0,1-8.682-4.135,4.118,4.118,0,0,0-.566,1.994,3.946,3.946,0,0,0,1.866,3.307,3.947,3.947,0,0,1-1.907-.5v.038a3.589,3.589,0,0,0,.282,1.441,4.153,4.153,0,0,0,3.084,2.442,3.825,3.825,0,0,1-1.866.087,4.193,4.193,0,0,0,3.935,2.755,8.89,8.89,0,0,1-5.231,1.715c-.365,0-.649-.036-1.014-.036a12.5,12.5,0,0,0,6.445,1.791,11.577,11.577,0,0,0,11.682-8.917,9.811,9.811,0,0,0,.285-2.4v-.517a9.3,9.3,0,0,0,2.108-2.053" transform="translate(-256.312 -3126.28)"/></svg>