<svg xmlns="http://www.w3.org/2000/svg" width="18.042" height="18.044" viewBox="0 0 18.042 18.044"><defs><style>.a{fill:#fff;}</style></defs><path class="a" d="M316.49,3125.387a9.02,9.02,0,0,0-3.287,17.42,8.707,8.707,0,0,1,.029-2.586c.164-.705,1.059-4.482,1.059-4.482a3.3,3.3,0,0,1-.267-1.341c0-1.251.726-2.19,1.631-2.19a1.133,1.133,0,0,1,1.141,1.271,18.01,18.01,0,0,1-.749,3.005,1.31,1.31,0,0,0,1.337,1.628c1.6,0,2.836-1.691,2.836-4.131a3.561,3.561,0,0,0-3.767-3.67,3.9,3.9,0,0,0-4.072,3.914,3.5,3.5,0,0,0,.67,2.059.278.278,0,0,1,.062.261l-.253,1.02c-.037.166-.127.2-.3.122a4.037,4.037,0,0,1-1.831-3.495c0-2.843,2.067-5.459,5.959-5.459a5.294,5.294,0,0,1,5.56,5.212c0,3.107-1.959,5.61-4.678,5.61a2.406,2.406,0,0,1-2.067-1.037l-.564,2.146a9.978,9.978,0,0,1-1.123,2.362,9.022,9.022,0,1,0,2.674-17.639" transform="translate(-307.469 -3125.387)"/></svg>